#!OML:ASF H:\Punching\Project 1\Capture day 1\Session 1\female.ASF
:FULLY-SPECIFIED
:DEGREES
2720
root -0.54159 15.2629 11.231 14.88 -25.4328 -3.63344
lowerback -1.41737 -4.25758 2.38771
upperback -6.31568 -5.52936 4.58556
thorax -5.53443 -2.78005 3.62659
lowerneck -3.73449 12.0039 18.3592
upperneck 32.8517 18.5716 -12.9107
head 15.2236 8.95609 -5.57249
rclavicle -5.53864e-014 -7.95139e-015
rhumerus 11.4196 43.9303 -79.7339
rradius 119.678
rwrist 10.1858
rhand -38.7207 4.97611
rfingers 7.12502
rthumb -11.7344 -24.6752
lclavicle -5.53864e-014 -7.95139e-015
lhumerus 45.2728 -18.6662 57.9855
lradius 74.6994
lwrist 1.99724
lhand -40.4573 16.0832
lfingers 7.12502
lthumb -13.4085 45.6316
rfemur 3.46735 11.6343 7.77327
rtibia -6.36111e-015
rfoot -13.2642 -13.1367
rtoes -18.7465
lfemur -39.8033 6.67243 -10.6992
ltibia 41.5067
lfoot -10.4054 14.8319
ltoes 0.53601
2721
root -0.47641 15.253 11.2941 15.2437 -24.9988 -3.80618
lowerback -1.35827 -4.41068 2.14058
upperback -6.32726 -5.72634 4.90953
thorax -5.51599 -2.85935 4.11173
lowerneck -3.94931 12.0041 18.0343
upperneck 33.123 18.579 -12.8054
head 15.3473 8.91701 -5.47381
rclavicle 7.26682e-014 3.4191e-014
rhumerus 11.8797 44.6432 -79.6308
rradius 119.476
rwrist 10.5046
rhand -38.9602 4.9772
rfingers 7.12502
rthumb -11.9653 -24.6608
lclavicle 7.26682e-014 3.4191e-014
lhumerus 47.8576 -19.6734 56.9946
lradius 71.4704
lwrist 2.05996
lhand -40.2211 15.4827
lfingers 7.12502
lthumb -13.1809 45.046
rfemur 3.41028 11.2302 7.77911
rtibia 3.49861e-014
rfoot -12.9567 -13.5151
rtoes -18.4684
lfemur -40.6551 6.48925 -10.9351
ltibia 42.3786
lfoot -10.6921 14.74
ltoes 0.400787
2722
root -0.413904 15.2441 11.3531 15.5761 -24.5492 -3.93671
lowerback -1.26489 -4.56511 1.85217
upperback -6.34253 -5.9248 5.23699
thorax -5.51275 -2.93736 4.62781
lowerneck -4.15366 12.0058 17.6749
upperneck 33.3738 18.6046 -12.7249
head 15.4622 8.87939 -5.37646
rclavicle -4.11981e-014 7.87187e-014
rhumerus 12.3803 45.3782 -79.5254
rradius 119.324
rwrist 10.6847
rhand -39.0001 4.94307
rfingers 7.12502
rthumb -12.0038 -24.6927
lclavicle -4.11981e-014 7.87187e-014
lhumerus 50.2937 -20.6232 55.9498
lradius 68.5723
lwrist 2.20474
lhand -40.0476 14.8116
lfingers 7.12502
lthumb -13.0136 44.3857
rfemur 3.36635 10.8055 7.77781
rtibia 1.90833e-014
rfoot -12.5882 -13.8618
rtoes -18.1245
lfemur -41.4669 6.30318 -11.1949
ltibia 43.1847
lfoot -10.9447 14.6183
ltoes 0.229994
2723
root -0.35413 15.2364 11.408 15.8716 -24.0992 -4.02694
lowerback -1.15302 -4.64235 1.5949
upperback -6.32432 -6.0227 5.4632
thorax -5.50133 -2.96885 5.01845
lowerneck -4.49076 11.9655 17.4146
upperneck 33.6312 18.5332 -12.6344
head 15.6025 8.80712 -5.3027
rclavicle 1.16513e-013 -6.36111e-015
rhumerus 12.8846 45.869 -79.4623
rradius 119.231
rwrist 10.7403
rhand -38.741 4.81285
rfingers 7.12502
rthumb -11.7539 -24.8374
lclavicle 1.16513e-013 -6.36111e-015
lhumerus 52.7677 -21.6671 54.804
lradius 66.0812
lwrist 2.38807
lhand -39.9241 14.0731
lfingers 7.12502
lthumb -12.8946 43.6547
rfemur 3.34208 10.3758 7.76512
rtibia 6.36111e-015
rfoot -12.1876 -14.1763
rtoes -17.7068
lfemur -42.2072 6.13197 -11.4844
ltibia 43.885
lfoot -11.1576 14.4729
ltoes 0.0492522
2724
root -0.297359 15.2232 11.4585 16.1323 -23.6537 -4.09161
lowerback -1.02134 -4.66046 1.37673
upperback -6.27651 -6.04292 5.61379
thorax -5.48618 -2.96504 5.30666
lowerneck -4.91014 11.8968 17.234
upperneck 33.8676 18.402 -12.5631
head 15.7534 8.714 -5.25685
rclavicle -1.06847e-015 1.59028e-015
rhumerus 13.4037 46.1708 -79.4156
rradius 119.205
rwrist 10.6245
rhand -38.1598 4.58419
rfingers 7.12502
rthumb -11.1934 -25.0972
lclavicle -1.06847e-015 1.59028e-015
lhumerus 55.197 -22.721 53.6572
lradius 64.0335
lwrist 2.45858
lhand -39.8385 13.2548
lfingers 7.12502
lthumb -12.8121 42.8416
rfemur 3.34973 9.95052 7.74693
rtibia -3.18055e-015
rfoot -11.7682 -14.4654
rtoes -17.3211
lfemur -42.891 5.99025 -11.7887
ltibia 44.495
lfoot -11.3398 14.3023
ltoes -0.0545022
2725
root -0.243033 15.2177 11.5072 16.3572 -23.2195 -4.13699
lowerback -0.8707 -4.61462 1.2156
upperback -6.20119 -5.97848 5.6833
thorax -5.47352 -2.92322 5.47618
lowerneck -5.40169 11.7981 17.1399
upperneck 34.0822 18.2079 -12.5123
head 15.913 8.60049 -5.24239
rclavicle 1.22998e-014 -3.49861e-014
rhumerus 13.9047 46.2769 -79.3939
rradius 119.22
rwrist 10.4208
rhand -37.354 4.23568
rfingers 7.12502
rthumb -10.4161 -25.4863
lclavicle 1.22998e-014 -3.49861e-014
lhumerus 57.5512 -23.769 52.5989
lradius 62.4206
lwrist 2.24005
lhand -39.7754 12.4201
lfingers 7.12502
lthumb -12.7512 42.0107
rfemur 3.38228 9.53764 7.73317
rtibia -3.18055e-015
rfoot -11.3616 -14.739
rtoes -16.9323
lfemur -43.454 5.87122 -12.1134
ltibia 44.9735
lfoot -11.5132 14.122
ltoes -0.114323
2726
root -0.191811 15.2137 11.5535 16.5502 -22.8123 -4.16952
lowerback -0.70672 -4.52195 1.10204
upperback -6.10574 -5.85183 5.69577
thorax -5.46336 -2.85369 5.5575
lowerneck -5.91799 11.6846 17.1072
upperneck 34.2625 17.9857 -12.4937
head 16.0695 8.47965 -5.25617
rclavicle 3.12092e-014 -1.59028e-015
rhumerus 14.3905 46.2611 -79.3776
rradius 119.239
rwrist 10.2321
rhand -36.5155 3.8291
rfingers 7.12502
rthumb -9.60716 -25.9318
lclavicle 3.12092e-014 -1.59028e-015
lhumerus 59.7443 -24.7562 51.7219
lradius 61.2107
lwrist 1.61135
lhand -39.7212 11.6221
lfingers 7.12502
lthumb -12.699 41.216
rfemur 3.43724 9.15333 7.7194
rtibia 9.54166e-015
rfoot -10.9638 -14.9915
rtoes -16.6484
lfemur -43.9206 5.77882 -12.4402
ltibia 45.3452
lfoot -11.6825 13.9354
ltoes -0.0622987
2727
root -0.14364 15.2111 11.5981 16.7153 -22.4376 -4.18571
lowerback -0.532843 -4.41932 1.01248
upperback -6.01166 -5.71141 5.69251
thorax -5.466 -2.77854 5.60947
lowerneck -6.38096 11.5772 17.0688
upperneck 34.404 17.7878 -12.5041
head 16.2038 8.36887 -5.27922
rclavicle 8.12035e-014 -2.38542e-014
rhumerus 14.8414 46.2511 -79.3643
rradius 119.242
rwrist 10.1405
rhand -35.82 3.39848
rfingers 7.12502
rthumb -8.93608 -26.3923
lclavicle 8.12035e-014 -2.38542e-014
lhumerus 61.6452 -25.6209 51.1133
lradius 60.3536
lwrist 0.559277
lhand -39.6981 10.9489
lfingers 7.12502
lthumb -12.6768 40.5441
rfemur 3.50849 8.80028 7.69498
rtibia 1.90833e-014
rfoot -10.6014 -15.2118
rtoes -16.4209
lfemur -44.2872 5.69939 -12.7659
ltibia 45.5969
lfoot -11.8374 13.7511
ltoes 0.084053
2728
root -0.0983948 15.2102 11.6416 16.8526 -22.1019 -4.16947
lowerback -0.358174 -4.3327 0.921212
upperback -5.93414 -5.59224 5.69322
thorax -5.48485 -2.71362 5.66829
lowerneck -6.72888 11.4913 17.0011
upperneck 34.5001 17.6522 -12.5494
head 16.3033 8.28296 -5.30491
rclavicle -2.85753e-014 3.97569e-015
rhumerus 15.2505 46.3208 -79.3587
rradius 119.196
rwrist 10.2248
rhand -35.4207 3.08547
rfingers 7.12502
rthumb -8.55081 -26.7214
lclavicle -2.85753e-014 3.97569e-015
lhumerus 63.1692 -26.3423 50.8156
lradius 59.7983
lwrist -0.823096
lhand -39.6981 10.5074
lfingers 7.12502
lthumb -12.6767 40.1026
rfemur 3.58916 8.47914 7.63802
rtibia -6.36111e-015
rfoot -10.2672 -15.3909
rtoes -16.267
lfemur -44.5724 5.6138 -13.1001
ltibia 45.7678
lfoot -11.9941 13.5796
ltoes 0.313429
2729
root -0.0559418 15.2106 11.6842 16.9746 -21.8102 -4.13577
lowerback -0.19557 -4.26293 0.846473
upperback -5.87717 -5.49527 5.69725
thorax -5.51839 -2.6603 5.72232
lowerneck -6.95622 11.4261 16.9026
upperneck 34.5629 17.5731 -12.6093
head 16.3676 8.22112 -5.3253
rclavicle -8.0309e-014 2.70347e-014
rhumerus 15.5849 46.4843 -79.386
rradius 119.129
rwrist 10.389
rhand -35.2728 2.85008
rfingers 7.12502
rthumb -8.40806 -26.9626
lclavicle -8.0309e-014 2.70347e-014
lhumerus 64.3215 -26.9461 50.8033
lradius 59.4972
lwrist -2.3422
lhand -39.7088 10.3456
lfingers 7.12502
lthumb -12.6871 39.9402
rfemur 3.66901 8.19653 7.55941
rtibia -2.22639e-014
rfoot -9.95684 -15.518
rtoes -16.1348
lfemur -44.794 5.52213 -13.4245
ltibia 45.8802
lfoot -12.1429 13.4265
ltoes 0.561422
2730
root -0.0159264 15.2122 11.7266 17.0856 -21.5581 -4.08978
lowerback -0.0519544 -4.23034 0.786158
upperback -5.84962 -5.44723 5.72487
thorax -5.5675 -2.63139 5.79521
lowerneck -7.02273 11.3906 16.7466
upperneck 34.5887 17.5725 -12.6798
head 16.3857 8.19118 -5.33086
rclavicle -8.12532e-014 1.51076e-014
rhumerus 15.8326 46.7913 -79.4523
rradius 119.086
rwrist 10.4975
rhand -35.25 2.67878
rfingers 7.12502
rthumb -8.38601 -27.1347
lclavicle -8.12532e-014 1.51076e-014
lhumerus 65.0708 -27.4161 51.0548
lradius 59.4034
lwrist -3.77129
lhand -39.7123 10.4823
lfingers 7.12502
lthumb -12.6905 40.0767
rfemur 3.40117 7.93414 7.46937
rtibia 0.699215
rfoot -10.0215 -15.5921
rtoes -16.0253
lfemur -44.9682 5.41637 -13.7335
ltibia 45.9607
lfoot -12.2797 13.2971
ltoes 0.782337
2731
root 0.0218545 15.2149 11.7687 17.191 -21.3463 -4.04192
lowerback 0.0551512 -4.17799 0.793187
upperback -5.82019 -5.37347 5.70273
thorax -5.60679 -2.59409 5.77329
lowerneck -7.09399 11.3542 16.6127
upperneck 34.6434 17.5473 -12.6923
head 16.4093 8.15921 -5.31995
rclavicle -5.05907e-014 1.19271e-014
rhumerus 15.9883 47.0504 -79.5815
rradius 119.031
rwrist 10.6466
rhand -35.4253 2.51238
rfingers 7.12502
rthumb -8.55521 -27.2943
lclavicle -5.05907e-014 1.19271e-014
lhumerus 65.6536 -27.8737 51.3826
lradius 59.4828
lwrist -4.85835
lhand -39.6903 10.8174
lfingers 7.12502
lthumb -12.6692 40.4131
rfemur 2.70577 7.69077 7.38187
rtibia 2.2474
rfoot -10.537 -15.6198
rtoes -15.91
lfemur -45.1116 5.29861 -14.0181
ltibia 46.0353
lfoot -12.3985 13.1977
ltoes 0.927275
2732
root 0.0575462 15.2183 11.8102 17.3021 -21.1627 -4.01087
lowerback 0.121301 -4.11632 0.874229
upperback -5.78758 -5.28738 5.64709
thorax -5.62987 -2.55531 5.66994
lowerneck -7.1739 11.3211 16.4919
upperneck 34.7273 17.5053 -12.6475
head 16.4399 8.12701 -5.28936
rclavicle 3.50358e-014 -2.70347e-014
rhumerus 16.0737 47.2701 -79.7492
rradius 118.971
rwrist 10.794
rhand -35.7261 2.39765
rfingers 7.12502
rthumb -8.84551 -27.397
lclavicle 3.50358e-014 -2.70347e-014
lhumerus 66.0936 -28.3005 51.726
lradius 59.696
lwrist -5.44182
lhand -39.6553 11.2185
lfingers 7.12502
lthumb -12.6355 40.8163
rfemur 2.40132 7.49509 7.30443
rtibia 2.98549
rfoot -10.6252 -15.6247
rtoes -15.7956
lfemur -45.2486 5.18033 -14.2659
ltibia 46.1252
lfoot -12.4909 13.1202
ltoes 0.975962
